<svg width="20" height="20" viewBox="0 0 20 20" fill="none" xmlns="http://www.w3.org/2000/svg">
<path d="M5 9.16667H8.33333" stroke="white" stroke-width="2" stroke-linecap="round" stroke-linejoin="round"/>
<path d="M6.66669 7.5V10.8333" stroke="white" stroke-width="2" stroke-linecap="round" stroke-linejoin="round"/>
<path d="M12.5 10H12.5083" stroke="white" stroke-width="2" stroke-linecap="round" stroke-linejoin="round"/>
<path d="M15 8.33333H15.0083" stroke="white" stroke-width="2" stroke-linecap="round" stroke-linejoin="round"/>
<path d="M14.4334 4.16667H5.56669C4.74192 4.16686 3.94651 4.47282 3.33422 5.02539C2.72192 5.57796 2.33623 6.33792 2.25169 7.15834C2.24669 7.20167 2.24335 7.2425 2.23752 7.285C2.17002 7.84667 1.66669 12.0467 1.66669 13.3333C1.66669 13.9964 1.93008 14.6323 2.39892 15.1011C2.86776 15.5699 3.50365 15.8333 4.16669 15.8333C5.00002 15.8333 5.41669 15.4167 5.83335 15L7.01169 13.8217C7.32417 13.5091 7.74803 13.3334 8.19002 13.3333H11.81C12.252 13.3334 12.6759 13.5091 12.9884 13.8217L14.1667 15C14.5834 15.4167 15 15.8333 15.8334 15.8333C16.4964 15.8333 17.1323 15.5699 17.6011 15.1011C18.07 14.6323 18.3334 13.9964 18.3334 13.3333C18.3334 12.0458 17.83 7.84667 17.7625 7.285C17.7567 7.24334 17.7534 7.20167 17.7484 7.15917C17.664 6.3386 17.2784 5.57845 16.6661 5.0257C16.0538 4.47296 15.2582 4.16689 14.4334 4.16667Z" stroke="white" stroke-width="2" stroke-linecap="round" stroke-linejoin="round"/>
</svg>
